<?xml version="1.0" encoding="UTF-8" standalone="no"?>
<!-- Created with Inkscape (http://www.inkscape.org/) -->

<svg
   xmlns:dc="http://purl.org/dc/elements/1.1/"
   xmlns:cc="http://creativecommons.org/ns#"
   xmlns:rdf="http://www.w3.org/1999/02/22-rdf-syntax-ns#"
   xmlns:svg="http://www.w3.org/2000/svg"
   xmlns="http://www.w3.org/2000/svg"
   xmlns:sodipodi="http://sodipodi.sourceforge.net/DTD/sodipodi-0.dtd"
   xmlns:inkscape="http://www.inkscape.org/namespaces/inkscape"
   width="24"
   height="24"
   viewBox="0 0 6.3499999 6.3500002"
   version="1.1"
   id="svg962"
   inkscape:version="0.92.3 (2405546, 2018-03-11)"
   sodipodi:docname="autoInstantCommand.svg">
  <defs
     id="defs956">
    <marker
       inkscape:stockid="Arrow1Lend"
       orient="auto"
       refY="0.0"
       refX="0.0"
       id="Arrow1Lend"
       style="overflow:visible;"
       inkscape:isstock="true">
      <path
         id="path829"
         d="M 0.0,0.0 L 5.0,-5.0 L -12.5,0.0 L 5.0,5.0 L 0.0,0.0 z "
         style="fill-rule:evenodd;stroke:#000000;stroke-width:1pt;stroke-opacity:1;fill:#000000;fill-opacity:1"
         transform="scale(0.8) rotate(180) translate(12.5,0)" />
    </marker>
  </defs>
  <sodipodi:namedview
     id="base"
     pagecolor="#ffffff"
     bordercolor="#666666"
     borderopacity="1.0"
     inkscape:pageopacity="0.0"
     inkscape:pageshadow="2"
     inkscape:zoom="22.627417"
     inkscape:cx="4.5079546"
     inkscape:cy="10.825895"
     inkscape:document-units="mm"
     inkscape:current-layer="layer1"
     showgrid="false"
     units="px"
     inkscape:pagecheckerboard="true"
     inkscape:window-width="1920"
     inkscape:window-height="1057"
     inkscape:window-x="-8"
     inkscape:window-y="-8"
     inkscape:window-maximized="1" />
  <metadata
     id="metadata959">
    <rdf:RDF>
      <cc:Work
         rdf:about="">
        <dc:format>image/svg+xml</dc:format>
        <dc:type
           rdf:resource="http://purl.org/dc/dcmitype/StillImage" />
        <dc:title />
      </cc:Work>
    </rdf:RDF>
  </metadata>
  <g
     inkscape:label="Layer 1"
     inkscape:groupmode="layer"
     id="layer1"
     transform="translate(0,-290.64998)">
    <path
       style="opacity:1;fill:#ffffff;fill-opacity:1;fill-rule:nonzero;stroke:none;stroke-width:0.06127341;stroke-linecap:butt;stroke-linejoin:miter;stroke-miterlimit:4;stroke-dasharray:none;stroke-opacity:1;paint-order:normal"
       d="m 4.3939142,292.28998 a 0.88407967,0.88407967 0 0 0 -0.8839603,0.88396 0.88407967,0.88407967 0 0 0 0.5448441,0.81622 v 2.08279 H 2.6134493 c -0.097134,0 -0.1756213,0.0984 -0.1756213,0.22078 v 0.70625 H 6.35 v -0.70625 c 0,-0.12235 -0.07849,-0.22078 -0.175621,-0.22078 H 4.7330302 v -2.08319 a 0.88407967,0.88407967 0 0 0 0.5448439,-0.81582 0.88407967,0.88407967 0 0 0 -0.8839599,-0.88396 z"
       id="rect812"
       inkscape:connector-curvature="0" />
    <text
       xml:space="preserve"
       style="font-style:normal;font-variant:normal;font-weight:normal;font-stretch:normal;font-size:5.99608278px;line-height:1.25;font-family:sans-serif;-inkscape-font-specification:'sans-serif, Normal';font-variant-ligatures:normal;font-variant-caps:normal;font-variant-numeric:normal;font-feature-settings:normal;text-align:center;letter-spacing:0px;word-spacing:0px;writing-mode:lr-tb;text-anchor:middle;fill:#ff00ff;fill-opacity:1;stroke:none;stroke-width:1.67882252"
       x="2.002598"
       y="296.99997"
       id="text824"><tspan
         sodipodi:role="line"
         id="tspan822"
         x="2.002598"
         y="296.99997"
         style="fill:#ff00ff;stroke-width:1.67882252">A</tspan></text>
    <path
       style="fill:#ffcc00;stroke:none;stroke-width:0.00864767"
       d="m 3.6834702,295.39904 c 0.00371,-0.003 -0.00181,-0.0225 -0.012485,-0.0392 -0.010731,-0.0147 -0.2101126,-0.28036 -0.4432111,-0.58688 l -0.4238089,-0.5575 0.044319,-0.007 c 0.024128,2e-5 0.1278797,0.007 0.2296253,0.013 0.1019439,-10e-4 0.2180392,0.0188 0.2585724,0.0129 l 0.073344,-0.007 -0.6565402,-0.77489 c -0.3611068,-0.42609 -0.6547051,-0.77633 -0.6524538,-0.77822 0.00233,-10e-4 0.1984316,0.009 0.4359673,0.022 0.2376834,0.0129 0.438513,0.022 0.4463136,0.0224 0.010891,-0.003 -0.1757308,-0.23471 -0.7696109,-0.95331 L 1.429379,290.8166 0.7607197,290.7361 c -0.819722,-0.0989 -0.7587345,-0.093 -0.76016929872,-0.0769 -8.494e-4,0.0103 0.25694179872,0.30058 1.15727799872,1.29852 l 0.3227467,0.35776 -0.4459819,-0.0375 c -0.2453723,-0.0209 -0.4690867,-0.034 -0.4968523,-0.0358 l -0.050497,10e-4 0.034747,0.0336 c 0.01901,0.0202 0.3969801,0.37881 0.8397316,0.79956 0.4427538,0.42074 0.8127047,0.77253 0.8221128,0.78188 0.016536,0.0147 2.243e-4,0.0147 -0.4132175,-0.0266 -0.4143565,-0.0391 -0.430522,-0.0407 -0.4317228,-0.0275 -0.00155,0.0181 -0.072289,-0.0312 1.3957758,0.96141 0.5023664,0.33953 0.920058,0.61979 0.9282029,0.62267 0.00798,0.001 0.017936,3.7e-4 0.022056,-0.007 z"
       id="path1152"
       inkscape:connector-curvature="0" />
  </g>
</svg>
