<?xml version="1.0" encoding="UTF-8" standalone="no"?>
<svg
   xmlns:dc="http://purl.org/dc/elements/1.1/"
   xmlns:cc="http://creativecommons.org/ns#"
   xmlns:rdf="http://www.w3.org/1999/02/22-rdf-syntax-ns#"
   xmlns:svg="http://www.w3.org/2000/svg"
   xmlns="http://www.w3.org/2000/svg"
   xmlns:sodipodi="http://sodipodi.sourceforge.net/DTD/sodipodi-0.dtd"
   xmlns:inkscape="http://www.inkscape.org/namespaces/inkscape"
   viewBox="0 0 16 16"
   version="1.1"
   id="svg12"
   sodipodi:docname="privateconstant.svg"
   inkscape:version="0.92.3 (2405546, 2018-03-11)">
  <metadata
     id="metadata18">
    <rdf:RDF>
      <cc:Work
         rdf:about="">
        <dc:format>image/svg+xml</dc:format>
        <dc:type
           rdf:resource="http://purl.org/dc/dcmitype/StillImage" />
        <dc:title></dc:title>
      </cc:Work>
    </rdf:RDF>
  </metadata>
  <defs
     id="defs16" />
  <sodipodi:namedview
     pagecolor="#ffffff"
     bordercolor="#666666"
     borderopacity="1"
     objecttolerance="10"
     gridtolerance="10"
     guidetolerance="10"
     inkscape:pageopacity="0"
     inkscape:pageshadow="2"
     inkscape:window-width="1920"
     inkscape:window-height="1057"
     id="namedview14"
     showgrid="false"
     inkscape:zoom="59"
     inkscape:cx="8.9433426"
     inkscape:cy="8.0166275"
     inkscape:window-x="-8"
     inkscape:window-y="-8"
     inkscape:window-maximized="1"
     inkscape:current-layer="iconBg" />
  <style
     id="style2">.icon-canvas-transparent{opacity:0;fill:#f6f6f6}.icon-vs-out{fill:#f6f6f6}.icon-vs-bg{fill:#424242}.icon-vs-fg{fill:#f0eff1}.icon-vs-action-blue{fill:#00539c}</style>
  <path
     class="icon-canvas-transparent"
     d="M16 16H0V0h16v16z"
     id="canvas" />
  <path
     class="icon-vs-out"
     d="M2.879 14L1 12.121V3.879L2.879 2h10.242L15 3.879v8.242L13.121 14H2.879z"
     id="outline" />
  <path
     class="icon-vs-fg"
     d="M12.293 4H3.707L3 4.707v6.586l.707.707h8.586l.707-.707V4.707L12.293 4zM11 10H5V9h6v1zm0-3H5V6h6v1z"
     id="iconFg" />
  <g
     id="iconBg">
    <path
       class="icon-vs-bg"
       d="M12.707 13H3.293L2 11.707V4.293L3.293 3h9.414L14 4.293v7.414L12.707 13zm-9-1h8.586l.707-.707V4.707L12.293 4H3.707L3 4.707v6.586l.707.707z"
       id="path7" />
    <path
       class="icon-vs-action-blue"
       d="M11 7H5V6h6v1zm0 2H5v1h6V9z"
       id="path9"
       style="fill:#424242;fill-opacity:1" />
  </g>
</svg>
