<?xml version="1.0" encoding="UTF-8" standalone="no"?>
<!-- Created with Inkscape (http://www.inkscape.org/) -->

<svg
   xmlns:dc="http://purl.org/dc/elements/1.1/"
   xmlns:cc="http://creativecommons.org/ns#"
   xmlns:rdf="http://www.w3.org/1999/02/22-rdf-syntax-ns#"
   xmlns:svg="http://www.w3.org/2000/svg"
   xmlns="http://www.w3.org/2000/svg"
   xmlns:sodipodi="http://sodipodi.sourceforge.net/DTD/sodipodi-0.dtd"
   xmlns:inkscape="http://www.inkscape.org/namespaces/inkscape"
   width="24"
   height="24"
   viewBox="0 0 16.933354 16.933355"
   version="1.1"
   id="svg8"
   inkscape:version="0.92.3 (2405546, 2018-03-11)"
   sodipodi:docname="icon.svg">
  <defs
     id="defs2" />
  <sodipodi:namedview
     id="base"
     pagecolor="#ffffff"
     bordercolor="#666666"
     borderopacity="1.0"
     inkscape:pageopacity="0.0"
     inkscape:pageshadow="2"
     inkscape:zoom="32"
     inkscape:cx="5.7347197"
     inkscape:cy="12.623721"
     inkscape:document-units="mm"
     inkscape:current-layer="g833"
     showgrid="false"
     units="px"
     inkscape:window-width="1920"
     inkscape:window-height="1057"
     inkscape:window-x="-8"
     inkscape:window-y="-8"
     inkscape:window-maximized="1"
     inkscape:measure-start="0,0"
     inkscape:measure-end="0,0"
     scale-x="2.66667"
     inkscape:pagecheckerboard="true" />
  <metadata
     id="metadata5">
    <rdf:RDF>
      <cc:Work
         rdf:about="">
        <dc:format>image/svg+xml</dc:format>
        <dc:type
           rdf:resource="http://purl.org/dc/dcmitype/StillImage" />
        <dc:title />
      </cc:Work>
    </rdf:RDF>
  </metadata>
  <g
     inkscape:label="Layer 1"
     inkscape:groupmode="layer"
     id="layer1"
     transform="translate(0,-308.28892)">
    <g
       id="g870"
       transform="translate(0.09687071,28.222276)">
      <g
         id="g833"
         transform="matrix(1.1102486,0,0,1.1102486,-0.92275926,-31.810389)">
        <path
           style="opacity:1;fill:#ffffff;fill-opacity:1;fill-rule:nonzero;stroke:none;stroke-width:0.22588639;stroke-linecap:butt;stroke-linejoin:miter;stroke-miterlimit:4;stroke-dasharray:none;stroke-opacity:1;paint-order:normal"
           d="M 1.0527344 19.474609 L 1.0527344 22.576172 L 3.0351562 22.576172 A 1.7173283 1.7173283 0 0 0 4.5664062 23.513672 A 1.7173283 1.7173283 0 0 0 6.09375 22.576172 L 10.277344 22.576172 A 1.7173283 1.7173283 0 0 0 11.908203 23.761719 A 1.7173283 1.7173283 0 0 0 13.541016 22.576172 L 17.619141 22.576172 A 1.7173283 1.7173283 0 0 0 19.251953 23.761719 A 1.7173283 1.7173283 0 0 0 20.882812 22.576172 L 22.763672 22.576172 L 22.763672 19.474609 L 1.0527344 19.474609 z M 8.9472656 19.894531 C 9.1728238 19.894531 9.3521599 19.95168 9.4863281 20.064453 C 9.6204964 20.177237 9.6875 20.327016 9.6875 20.515625 C 9.6875 20.605109 9.6707466 20.690823 9.6367188 20.771484 C 9.6036631 20.851212 9.5435516 20.945806 9.4550781 21.054688 C 9.4307726 21.082904 9.3529359 21.16371 9.2226562 21.298828 C 9.0923772 21.432991 8.9090998 21.621191 8.671875 21.863281 L 9.6992188 21.863281 L 9.6992188 22.111328 L 8.3164062 22.111328 L 8.3164062 21.863281 C 8.4282131 21.747581 8.5809352 21.592876 8.7734375 21.398438 C 8.9669119 21.20302 9.089088 21.077881 9.1386719 21.021484 C 9.2329785 20.91552 9.2989927 20.824873 9.3359375 20.751953 C 9.3738545 20.6781 9.3925781 20.606167 9.3925781 20.535156 C 9.3925781 20.419456 9.3511989 20.324862 9.2695312 20.251953 C 9.1888363 20.179044 9.0834044 20.142578 8.953125 20.142578 C 8.8607633 20.142578 8.7632134 20.159305 8.6601562 20.191406 C 8.5580722 20.223507 8.4486994 20.272744 8.3320312 20.337891 L 8.3320312 20.039062 C 8.4506437 19.991439 8.5610058 19.955979 8.6640625 19.931641 C 8.7671193 19.907303 8.8617092 19.894531 8.9472656 19.894531 z M 12.851562 19.894531 C 13.095593 19.894531 13.281821 19.992081 13.410156 20.185547 C 13.539463 20.378048 13.603516 20.657876 13.603516 21.025391 C 13.603516 21.391919 13.539463 21.671758 13.410156 21.865234 C 13.281821 22.057736 13.095593 22.154297 12.851562 22.154297 C 12.607533 22.154297 12.420323 22.057736 12.291016 21.865234 C 12.162681 21.671758 12.099609 21.391919 12.099609 21.025391 C 12.099609 20.657876 12.162681 20.378048 12.291016 20.185547 C 12.420323 19.992081 12.607533 19.894531 12.851562 19.894531 z M 14.753906 19.894531 C 14.970714 19.894531 15.140197 19.945746 15.263672 20.046875 C 15.387145 20.148004 15.449219 20.284968 15.449219 20.458984 C 15.449219 20.583423 15.412776 20.688854 15.341797 20.775391 C 15.271794 20.861937 15.174243 20.922031 15.048828 20.953125 C 15.190774 20.98617 15.302109 21.050223 15.380859 21.146484 C 15.460587 21.242787 15.5 21.361022 15.5 21.5 C 15.5 21.710975 15.435948 21.871602 15.306641 21.984375 C 15.178306 22.097159 14.994048 22.154297 14.753906 22.154297 C 14.513764 22.154297 14.328526 22.097159 14.199219 21.984375 C 14.070884 21.871602 14.005859 21.710975 14.005859 21.5 C 14.005859 21.360969 14.045277 21.242735 14.125 21.146484 C 14.204723 21.050286 14.317038 20.986233 14.458984 20.953125 C 14.332594 20.921968 14.233082 20.861875 14.162109 20.775391 C 14.092108 20.688844 14.056641 20.583412 14.056641 20.458984 C 14.056641 20.284947 14.118714 20.147983 14.242188 20.046875 C 14.366633 19.945746 14.53807 19.894531 14.753906 19.894531 z M 10.246094 19.933594 L 11.644531 19.933594 L 11.644531 20.060547 L 10.855469 22.111328 L 10.546875 22.111328 L 11.291016 20.181641 L 10.246094 20.181641 L 10.246094 19.933594 z M 12.851562 20.128906 C 12.699895 20.128906 12.584619 20.203795 12.507812 20.353516 C 12.43198 20.502271 12.394531 20.725939 12.394531 21.025391 C 12.394531 21.323857 12.43198 21.547534 12.507812 21.697266 C 12.584619 21.846011 12.699895 21.919922 12.851562 21.919922 C 13.004203 21.919922 13.117525 21.846011 13.193359 21.697266 C 13.270166 21.547534 13.308594 21.323857 13.308594 21.025391 C 13.308594 20.725939 13.270166 20.502271 13.193359 20.353516 C 13.117525 20.203795 13.004203 20.128906 12.851562 20.128906 z M 14.753906 20.128906 C 14.626544 20.128906 14.526051 20.159503 14.455078 20.222656 C 14.385077 20.285809 14.349609 20.373503 14.349609 20.486328 C 14.349609 20.599101 14.385077 20.688758 14.455078 20.751953 C 14.526051 20.815106 14.626543 20.845703 14.753906 20.845703 C 14.880297 20.845703 14.977856 20.815106 15.048828 20.751953 C 15.120772 20.6888 15.15625 20.599143 15.15625 20.486328 C 15.15625 20.373544 15.120772 20.285851 15.048828 20.222656 C 14.97786 20.159503 14.880301 20.128906 14.753906 20.128906 z M 14.753906 21.078125 C 14.613905 21.078125 14.50257 21.114551 14.421875 21.189453 C 14.342152 21.264355 14.302734 21.368785 14.302734 21.5 C 14.302734 21.631247 14.342152 21.733733 14.421875 21.808594 C 14.50257 21.883496 14.613905 21.919922 14.753906 21.919922 C 14.893908 21.919922 15.003289 21.883496 15.083984 21.808594 C 15.164677 21.732747 15.205078 21.630261 15.205078 21.5 C 15.205078 21.368743 15.164677 21.264314 15.083984 21.189453 C 15.004267 21.114551 14.894885 21.078125 14.753906 21.078125 z "
           transform="matrix(0.6354941,0,0,0.6354941,0.74387714,280.90739)"
           id="path822" />
        <path
           style="opacity:1;fill:#ffffff;fill-opacity:1;fill-rule:nonzero;stroke:none;stroke-width:0.20800026;stroke-linecap:butt;stroke-linejoin:miter;stroke-miterlimit:4;stroke-dasharray:none;stroke-opacity:1;paint-order:normal"
           d="m 10.981962,281.05856 -0.01309,2.6367 -6.5627305,10.02971 0.8753988,-0.0832 5.7004267,-8.71264 v 8.36176 h 1.374593 v -12.23232 z"
           id="rect840"
           inkscape:connector-curvature="0"
           sodipodi:nodetypes="ccccccccc" />
        <path
           style="opacity:1;fill:#ffffff;fill-opacity:1;fill-rule:nonzero;stroke:none;stroke-width:0.16322578;stroke-linecap:butt;stroke-linejoin:miter;stroke-miterlimit:4;stroke-dasharray:none;stroke-opacity:1;paint-order:normal"
           d="m 11.83703,287.27588 3.06179,-1.67422 0.42802,0.82323 -3.06179,1.67423 z"
           id="rect843"
           inkscape:connector-curvature="0"
           sodipodi:nodetypes="ccccc" />
        <path
           style="fill:#ffffff;stroke-width:0.01040277"
           d="m 2.1219522,289.51699 c -0.033773,-0.0113 -0.085864,-0.0278 -0.1162461,-0.0433 -0.060337,-0.0318 -0.6394358,-0.52512 -0.6914682,-0.58925 -0.076033,-0.0935 -0.1121447,-0.25871 -0.084481,-0.38587 0.028197,-0.12955 -0.022526,-0.0644 0.8888305,-1.12823 0.2500635,-0.29169 0.5526743,-0.64499 0.6724627,-0.78518 0.1197901,-0.14014 0.4202738,-0.49086 0.6677426,-0.7794 0.2474725,-0.28852 0.5479002,-0.63891 0.667609,-0.77885 0.1197008,-0.13994 0.3200256,-0.37381 0.4451306,-0.51996 0.1251193,-0.14605 0.3224619,-0.37724 0.4385504,-0.51365 0.1160901,-0.13636 0.2172646,-0.24851 0.2248224,-0.24907 0.00772,-0.001 0.2306281,0.18522 0.4957371,0.41332 l 0.4819981,0.4146 -0.086954,0.11461 c -0.047754,0.064 -0.1437753,0.19016 -0.2132507,0.28196 -0.069476,0.0916 -0.1684304,0.22241 -0.219882,0.29051 -0.05146,0.0686 -0.4135696,0.54639 -0.8047039,1.06289 -0.3911365,0.51647 -0.7722019,1.0198 -0.8468107,1.11849 -0.074598,0.0994 -0.3528284,0.46635 -0.6182586,0.81701 -0.9724429,1.28475 -0.8681842,1.15466 -0.9737125,1.21514 -0.079064,0.0458 -0.2328555,0.0654 -0.3272511,0.0421 z m 5.9936227,-4.31453 c -0.077192,-0.0191 -0.132238,-0.0576 -0.2648353,-0.17876 -0.095804,-0.0881 -0.1308427,-0.12687 -0.1512135,-0.1694 -0.054343,-0.1131 -0.057764,-0.18659 -0.011499,-0.24706 0.092739,-0.12078 0.00935,-0.30929 -0.2173989,-0.4902 -0.048592,-0.038 -0.1180829,-0.0867 -0.1542287,-0.10668 -0.1511663,-0.0825 -0.3445908,-0.11436 -0.4763261,-0.0789 -0.1138193,0.0312 -0.1497276,0.0572 -0.297335,0.23028 -0.074706,0.0878 -0.1372626,0.15867 -0.1389614,0.15882 -0.00672,9e-5 -0.2670875,-0.21202 -0.6211132,-0.50724 l -0.3741013,-0.31205 0.1186365,-0.14694 c 0.06525,-0.0804 0.134902,-0.17284 0.1547613,-0.20477 0.1243192,-0.1988 0.052774,-0.43586 -0.1856527,-0.61534 -0.3892089,-0.29295 -0.8626836,-0.47358 -1.4084014,-0.53723 -0.1480059,-0.0174 -0.3668137,-0.0245 -0.4613632,-0.017 l -0.064977,0.001 -0.00579,-0.0661 c -0.00325,-0.0364 -0.011813,-0.10115 -0.01921,-0.14319 l -0.013444,-0.0779 0.1306952,-0.0445 c 0.2301668,-0.0765 0.4334656,-0.13015 0.7284838,-0.19346 0.068374,-0.009 0.2292591,-0.0342 0.4394379,-0.0491 0.3501938,-0.0279 0.4753311,-0.034 0.7314204,0.004 0.4151266,0.0547 0.784619,0.1921 1.1282106,0.42036 0.057944,0.0385 0.331914,0.25938 0.6088187,0.4908 l 0.5034678,0.4208 0.027089,0.0672 c 0.018043,0.0447 0.03576,0.12418 0.052886,0.23554 0.030229,0.19703 0.039137,0.23968 0.066902,0.32022 0.047787,0.13868 0.1395659,0.23952 0.2672295,0.29382 0.1390569,0.0586 0.2255569,0.0611 0.3020225,0.0101 0.041276,-0.0284 0.059681,-0.0337 0.1308952,-0.0413 0.1247129,-0.001 0.1734616,0.0113 0.3237777,0.14878 0.065936,0.0608 0.1316442,0.12919 0.1460872,0.15337 0.055563,0.0924 0.06392,0.2157 0.021849,0.32115 -0.02091,0.0527 -0.1634261,0.23147 -0.6048523,0.76046 -0.1218194,0.14601 -0.1639485,0.17422 -0.2813082,0.18832 -0.056479,0.001 -0.098397,-0.003 -0.1310527,-0.0126 z"
           id="path908"
           inkscape:connector-curvature="0" />
      </g>
    </g>
  </g>
</svg>
