<?xml version="1.0" encoding="UTF-8" standalone="no"?>
<!-- Created with Inkscape (http://www.inkscape.org/) -->

<svg
   xmlns:dc="http://purl.org/dc/elements/1.1/"
   xmlns:cc="http://creativecommons.org/ns#"
   xmlns:rdf="http://www.w3.org/1999/02/22-rdf-syntax-ns#"
   xmlns:svg="http://www.w3.org/2000/svg"
   xmlns="http://www.w3.org/2000/svg"
   xmlns:sodipodi="http://sodipodi.sourceforge.net/DTD/sodipodi-0.dtd"
   xmlns:inkscape="http://www.inkscape.org/namespaces/inkscape"
   width="128"
   height="128"
   viewBox="0 0 90.311221 90.311227"
   version="1.1"
   id="svg8"
   inkscape:version="0.92.3 (2405546, 2018-03-11)"
   sodipodi:docname="icon.svg">
  <defs
     id="defs2" />
  <sodipodi:namedview
     id="base"
     pagecolor="#ffffff"
     bordercolor="#666666"
     borderopacity="1.0"
     inkscape:pageopacity="0.0"
     inkscape:pageshadow="2"
     inkscape:zoom="4"
     inkscape:cx="72.898833"
     inkscape:cy="76.032311"
     inkscape:document-units="mm"
     inkscape:current-layer="g822"
     showgrid="false"
     units="px"
     inkscape:window-width="1920"
     inkscape:window-height="1057"
     inkscape:window-x="-8"
     inkscape:window-y="-8"
     inkscape:window-maximized="1"
     inkscape:measure-start="0,0"
     inkscape:measure-end="0,0"
     scale-x="2.66667"
     inkscape:pagecheckerboard="true" />
  <metadata
     id="metadata5">
    <rdf:RDF>
      <cc:Work
         rdf:about="">
        <dc:format>image/svg+xml</dc:format>
        <dc:type
           rdf:resource="http://purl.org/dc/dcmitype/StillImage" />
        <dc:title></dc:title>
      </cc:Work>
    </rdf:RDF>
  </metadata>
  <g
     inkscape:label="Layer 1"
     inkscape:groupmode="layer"
     id="layer1"
     transform="translate(0,-234.91105)">
    <g
       id="g870"
       transform="translate(0.09687071,28.222276)">
      <g
         id="g833"
         transform="matrix(1.1102486,0,0,1.1102486,-0.92275926,-31.810389)">
        <g
           id="g822"
           transform="matrix(5.5593711,0,0,5.2459038,-4.5808955,-1258.1298)">
          <path
             sodipodi:nodetypes="ccccccccc"
             inkscape:connector-curvature="0"
             id="rect840"
             d="m 10.981962,281.05856 -0.01309,2.6367 -6.5627305,10.02971 0.8753988,-0.0832 5.7004267,-8.71264 v 8.36176 h 1.374593 v -12.23232 z"
             style="opacity:1;fill:#e6e6e6;fill-opacity:1;fill-rule:nonzero;stroke:none;stroke-width:0.20800026;stroke-linecap:butt;stroke-linejoin:miter;stroke-miterlimit:4;stroke-dasharray:none;stroke-opacity:1;paint-order:normal" />
          <g
             id="g897"
             style="fill:#f9f9f9">
            <ellipse
               ry="1.0675552"
               rx="1.0073607"
               cy="294.87796"
               cx="3.3347275"
               id="path858"
               style="opacity:1;fill:#f9f9f9;fill-opacity:1;fill-rule:nonzero;stroke:none;stroke-width:0.2022942;stroke-linecap:round;stroke-linejoin:round;stroke-miterlimit:4;stroke-dasharray:none;stroke-opacity:1;paint-order:normal" />
            <path
               id="path858-6"
               transform="matrix(0.11431043,0,0,0.12114101,0.95780126,280.78018)"
               d="M 56.070312 119.42578 A 8.8125003 8.8125002 0 0 0 64.330078 125.1875 A 8.8125003 8.8125002 0 0 0 72.585938 119.42578 L 56.070312 119.42578 z "
               style="opacity:1;fill:#f9f9f9;fill-opacity:1;fill-rule:nonzero;stroke:none;stroke-width:1.71907532;stroke-linecap:round;stroke-linejoin:round;stroke-miterlimit:4;stroke-dasharray:none;stroke-opacity:1;paint-order:normal" />
            <ellipse
               ry="1.0675552"
               rx="1.0073607"
               cy="294.87796"
               cx="13.288214"
               id="path858-5"
               style="opacity:1;fill:#f9f9f9;fill-opacity:1;fill-rule:nonzero;stroke:none;stroke-width:0.2022942;stroke-linecap:round;stroke-linejoin:round;stroke-miterlimit:4;stroke-dasharray:none;stroke-opacity:1;paint-order:normal" />
          </g>
          <path
             inkscape:connector-curvature="0"
             id="path822"
             transform="matrix(0.6354941,0,0,0.6354941,0.74387714,280.90739)"
             d="m 1.0527344,19.474609 v 3.101563 h 9.4164566 l 2.518271,-3.101563 z"
             style="opacity:1;fill:#0000d4;fill-opacity:1;fill-rule:nonzero;stroke:none;stroke-width:0.22588639;stroke-linecap:butt;stroke-linejoin:miter;stroke-miterlimit:4;stroke-dasharray:none;stroke-opacity:1;paint-order:normal"
             sodipodi:nodetypes="ccccc" />
          <path
             sodipodi:nodetypes="ccccc"
             inkscape:connector-curvature="0"
             id="rect843"
             d="m 11.83703,287.27588 3.06179,-1.67422 0.42802,0.82323 -3.06179,1.67423 z"
             style="opacity:1;fill:#e6e6e6;fill-opacity:1;fill-rule:nonzero;stroke:none;stroke-width:0.16322578;stroke-linecap:butt;stroke-linejoin:miter;stroke-miterlimit:4;stroke-dasharray:none;stroke-opacity:1;paint-order:normal" />
          <path
             inkscape:connector-curvature="0"
             id="path908"
             d="m 2.1219522,289.51699 c -0.033773,-0.0113 -0.085864,-0.0278 -0.1162461,-0.0433 -0.060337,-0.0318 -0.6394358,-0.52512 -0.6914682,-0.58925 -0.076033,-0.0935 -0.1121447,-0.25871 -0.084481,-0.38587 0.028197,-0.12955 -0.022526,-0.0644 0.8888305,-1.12823 0.2500635,-0.29169 0.5526743,-0.64499 0.6724627,-0.78518 0.1197901,-0.14014 0.4202738,-0.49086 0.6677426,-0.7794 0.2474725,-0.28852 0.5479002,-0.63891 0.667609,-0.77885 0.1197008,-0.13994 0.3200256,-0.37381 0.4451306,-0.51996 0.1251193,-0.14605 0.3224619,-0.37724 0.4385504,-0.51365 0.1160901,-0.13636 0.2172646,-0.24851 0.2248224,-0.24907 0.00772,-0.001 0.2306281,0.18522 0.4957371,0.41332 l 0.4819981,0.4146 -0.086954,0.11461 c -0.047754,0.064 -0.1437753,0.19016 -0.2132507,0.28196 -0.069476,0.0916 -0.1684304,0.22241 -0.219882,0.29051 -0.05146,0.0686 -0.4135696,0.54639 -0.8047039,1.06289 -0.3911365,0.51647 -0.7722019,1.0198 -0.8468107,1.11849 -0.074598,0.0994 -0.3528284,0.46635 -0.6182586,0.81701 -0.9724429,1.28475 -0.8681842,1.15466 -0.9737125,1.21514 -0.079064,0.0458 -0.2328555,0.0654 -0.3272511,0.0421 z m 5.9936227,-4.31453 c -0.077192,-0.0191 -0.132238,-0.0576 -0.2648353,-0.17876 -0.095804,-0.0881 -0.1308427,-0.12687 -0.1512135,-0.1694 -0.054343,-0.1131 -0.057764,-0.18659 -0.011499,-0.24706 0.092739,-0.12078 0.00935,-0.30929 -0.2173989,-0.4902 -0.048592,-0.038 -0.1180829,-0.0867 -0.1542287,-0.10668 -0.1511663,-0.0825 -0.3445908,-0.11436 -0.4763261,-0.0789 -0.1138193,0.0312 -0.1497276,0.0572 -0.297335,0.23028 -0.074706,0.0878 -0.1372626,0.15867 -0.1389614,0.15882 -0.00672,9e-5 -0.2670875,-0.21202 -0.6211132,-0.50724 l -0.3741013,-0.31205 0.1186365,-0.14694 c 0.06525,-0.0804 0.134902,-0.17284 0.1547613,-0.20477 0.1243192,-0.1988 0.052774,-0.43586 -0.1856527,-0.61534 -0.3892089,-0.29295 -0.8626836,-0.47358 -1.4084014,-0.53723 -0.1480059,-0.0174 -0.3668137,-0.0245 -0.4613632,-0.017 l -0.064977,0.001 -0.00579,-0.0661 c -0.00325,-0.0364 -0.011813,-0.10115 -0.01921,-0.14319 l -0.013444,-0.0779 0.1306952,-0.0445 c 0.2301668,-0.0765 0.4334656,-0.13015 0.7284838,-0.19346 0.068374,-0.009 0.2292591,-0.0342 0.4394379,-0.0491 0.3501938,-0.0279 0.4753311,-0.034 0.7314204,0.004 0.4151266,0.0547 0.784619,0.1921 1.1282106,0.42036 0.057944,0.0385 0.331914,0.25938 0.6088187,0.4908 l 0.5034678,0.4208 0.027089,0.0672 c 0.018043,0.0447 0.03576,0.12418 0.052886,0.23554 0.030229,0.19703 0.039137,0.23968 0.066902,0.32022 0.047787,0.13868 0.1395659,0.23952 0.2672295,0.29382 0.1390569,0.0586 0.2255569,0.0611 0.3020225,0.0101 0.041276,-0.0284 0.059681,-0.0337 0.1308952,-0.0413 0.1247129,-0.001 0.1734616,0.0113 0.3237777,0.14878 0.065936,0.0608 0.1316442,0.12919 0.1460872,0.15337 0.055563,0.0924 0.06392,0.2157 0.021849,0.32115 -0.02091,0.0527 -0.1634261,0.23147 -0.6048523,0.76046 -0.1218194,0.14601 -0.1639485,0.17422 -0.2813082,0.18832 -0.056479,0.001 -0.098397,-0.003 -0.1310527,-0.0126 z"
             style="fill:#ffffff;stroke-width:0.01040277" />
          <path
             inkscape:connector-curvature="0"
             id="path822-0"
             d="m 7.3969864,295.25441 h 7.8130706 v -1.97102 H 8.9973326 Z"
             style="opacity:1;fill:#d40000;fill-opacity:1;fill-rule:nonzero;stroke:none;stroke-width:0.14354947;stroke-linecap:butt;stroke-linejoin:miter;stroke-miterlimit:4;stroke-dasharray:none;stroke-opacity:1;paint-order:normal"
             sodipodi:nodetypes="ccccc" />
        </g>
      </g>
    </g>
  </g>
</svg>
