<?xml version="1.0" encoding="UTF-8" standalone="no"?>
<!-- Created with Inkscape (http://www.inkscape.org/) -->

<svg
   xmlns:dc="http://purl.org/dc/elements/1.1/"
   xmlns:cc="http://creativecommons.org/ns#"
   xmlns:rdf="http://www.w3.org/1999/02/22-rdf-syntax-ns#"
   xmlns:svg="http://www.w3.org/2000/svg"
   xmlns="http://www.w3.org/2000/svg"
   xmlns:sodipodi="http://sodipodi.sourceforge.net/DTD/sodipodi-0.dtd"
   xmlns:inkscape="http://www.inkscape.org/namespaces/inkscape"
   sodipodi:docname="subsystem.svg"
   inkscape:version="0.92.3 (2405546, 2018-03-11)"
   id="svg962"
   version="1.1"
   viewBox="0 0 6.3499999 6.3500002"
   height="24"
   width="24">
  <sodipodi:namedview
     inkscape:window-maximized="1"
     inkscape:window-y="-8"
     inkscape:window-x="-8"
     inkscape:window-height="1057"
     inkscape:window-width="1920"
     inkscape:pagecheckerboard="true"
     units="px"
     showgrid="false"
     inkscape:current-layer="g2249"
     inkscape:document-units="mm"
     inkscape:cy="7.2751782"
     inkscape:cx="2.1663911"
     inkscape:zoom="21.468186"
     inkscape:pageshadow="2"
     inkscape:pageopacity="0.0"
     borderopacity="1.0"
     bordercolor="#666666"
     pagecolor="#ffffff"
     id="base"
     showguides="false" />
  <defs
     id="defs956">
    <inkscape:path-effect
       effect="gears"
       id="path-effect2239"
       is_visible="true"
       teeth="10"
       phi="5"
       min_radius="5" />
  </defs>
  <metadata
     id="metadata959">
    <rdf:RDF>
      <cc:Work
         rdf:about="">
        <dc:format>image/svg+xml</dc:format>
        <dc:type
           rdf:resource="http://purl.org/dc/dcmitype/StillImage" />
        <dc:title></dc:title>
      </cc:Work>
    </rdf:RDF>
  </metadata>
  <g
     inkscape:label="Layer 1"
     inkscape:groupmode="layer"
     id="layer1"
     transform="translate(0,-290.64998)">
    <g
       transform="translate(1.3398351,294.21589)"
       inkscape:label="Gear24"
       id="g2249">
      <g
         transform="matrix(1.0672793,-0.09716934,0.09716934,1.0672793,14.221716,10.342046)"
         inkscape:label="Gear24"
         id="g2327"
         style="fill:#ffffff" />
      <g
         id="g2389"
         transform="matrix(0.06107981,-0.03526445,0.03526445,0.06107981,2.5314962,-1.8772189)">
        <g
           style="fill:#ffffff"
           transform="translate(-45.282629,12.746713)"
           inkscape:label="Gear24"
           id="g2301">
          <path
             id="path2297"
             transform="matrix(0.26458333,0,0,0.26458333,43.942794,-16.312623)"
             d="m -168.36133,-21.076172 -2.71875,6.5 -0.76562,4.6738282 0.14258,1.7539063 -7.01563,0.9238281 -0.31836,-1.7304687 -1.94922,-4.3183599 -4.30859,-5.572265 -4.40039,1.179687 -0.94336,6.980469 0.4707,4.7128908 0.58985,1.6582031 -6.53711,2.7070312 -0.75586,-1.5878906 -3,-3.6660156 -5.60352,-4.2695309 -3.94531,2.2773434 0.89453,6.9882812 1.67383,4.4316406 1,1.4472657 -5.61524,4.3085937 -1.13867,-1.3398437 -3.84765,-2.765625 -6.51758,-2.671875 -3.22071,3.2207031 2.67188,6.517578 2.76367,3.847656 1.33984,1.140625 -4.30664,5.613282 -1.44726,-0.998047 -4.4336,-1.675781 -6.98632,-0.894532 -2.27735,3.945313 4.26758,5.603515 3.66602,3.001954 1.58984,0.753906 -2.70898,6.537109 -1.65625,-0.589844 -4.71485,-0.470703 -6.98047,0.945313 -1.17773,4.398437 5.57226,4.308594 4.31836,1.949219 1.73047,0.318359 -0.92383,7.015625 -1.7539,-0.140625 -4.67578,0.765625 -6.49805,2.71875 v 4.554688 l 6.49805,2.71875 4.67578,0.765625 1.7539,-0.140625 0.92383,7.015625 -1.73047,0.316406 -4.31836,1.951172 -5.57226,4.30664 1.17773,4.400391 6.98047,0.945313 4.71485,-0.470704 1.65625,-0.589843 2.70898,6.537109 -1.58984,0.753906 -3.66602,3 -4.26758,5.605474 2.27735,3.94335 6.98632,-0.89453 4.4336,-1.67382 1.44726,-0.99805 4.30664,5.61328 -1.33984,1.14062 -2.76367,3.84571 -2.67188,6.51953 3.22071,3.2207 6.51758,-2.67383 3.84765,-2.76367 1.13867,-1.33984 5.61524,4.30859 -1,1.44727 -1.67383,4.43164 -0.89453,6.98633 3.94531,2.27734 5.60352,-4.26758 3,-3.66601 0.75586,-1.58985 6.53711,2.70899 -0.58985,1.65625 -0.4707,4.71484 0.94336,6.98047 4.40039,1.17969 4.30859,-5.57422 1.94922,-4.31641 0.31836,-1.73047 7.01563,0.92383 -0.14258,1.75195 0.76562,4.67579 2.71875,6.49804 h 4.55664 l 2.71875,-6.49804 0.76563,-4.67579 -0.14258,-1.75195 7.01562,-0.92383 0.31836,1.73047 1.94922,4.31641 4.3086,5.57422 4.40039,-1.17969 0.94336,-6.98047 -0.47071,-4.71484 -0.58984,-1.65625 6.53711,-2.70899 0.75586,1.58985 3,3.66601 5.60351,4.26758 3.94532,-2.27734 -0.89453,-6.98633 -1.67383,-4.43164 -1,-1.44727 5.61523,-4.30859 1.13867,1.33984 3.84766,2.76367 6.51758,2.67383 3.2207,-3.2207 -2.67187,-6.51953 -2.76368,-3.84571 -1.33984,-1.14062 4.30664,-5.61328 1.44727,0.99805 4.43359,1.67382 6.986328,0.89453 2.277344,-3.94335 -4.267578,-5.605474 -3.666014,-3 -1.58985,-0.753906 2.70899,-6.537109 1.656249,0.589843 4.714843,0.470704 6.980469,-0.945313 1.177735,-4.400391 -5.572266,-4.30664 -4.318359,-1.951172 -1.730469,-0.316406 0.923828,-7.015625 1.753906,0.140625 4.675782,-0.765625 6.498046,-2.71875 v -4.554688 l -6.498046,-2.71875 -4.675782,-0.765625 -1.753906,0.140625 -0.923828,-7.015625 1.730469,-0.318359 4.318359,-1.949219 5.572266,-4.308594 -1.177735,-4.398437 -6.980469,-0.945313 -4.714843,0.470703 -1.656249,0.589844 -2.70899,-6.537109 1.58985,-0.753906 3.666014,-3.001954 4.267578,-5.603515 -2.277344,-3.945313 -6.986328,0.894532 -4.43359,1.675781 -1.44727,0.998047 -4.30664,-5.613282 1.33984,-1.140625 2.76368,-3.847656 2.67187,-6.517578 -3.2207,-3.2207031 -6.51758,2.671875 -3.84766,2.765625 -1.13867,1.3398437 -5.61523,-4.3085937 1,-1.4472657 1.67383,-4.4316406 0.89453,-6.9882812 -3.94532,-2.2773434 -5.60351,4.2695309 -3,3.6660156 -0.75586,1.5878906 -6.53711,-2.7070312 0.58984,-1.6582031 0.47071,-4.7128908 -0.94336,-6.980469 -4.40039,-1.179687 -4.3086,5.572265 -1.94922,4.3183599 -0.31836,1.7304687 -7.01562,-0.9238281 0.14258,-1.7539063 -0.76563,-4.6738282 -2.71875,-6.5 z m 2.2793,52.253906 a 30.476189,30.476189 0 0 1 30.47461,30.476563 30.476189,30.476189 0 0 1 -30.47461,30.476562 30.476189,30.476189 0 0 1 -30.47656,-30.476562 30.476189,30.476189 0 0 1 30.47656,-30.476563 z"
             style="fill:#ffffff;stroke:#000000;stroke-width:0.99999994"
             inkscape:connector-curvature="0" />
        </g>
        <path
           transform="matrix(0.26458333,0,0,0.26458333,-1.3398351,-3.56591)"
           id="path2323"
           d="m 27.013672,-16.591797 -4.535156,0.414063 -2.119141,6.7187496 -0.337891,4.7246094 0.298828,1.7324219 -6.902343,1.5566406 L 12.945312,-3.1386719 10.611328,-7.2617188 5.8164062,-12.421875 1.5410156,-10.849609 1.234375,-3.8125 2.1289062,0.83984375 2.8671875,2.4375 -3.3984375,5.7265625 -4.2929688,4.2128906 -7.6132812,0.83398438 -13.582031,-2.9082031 l -3.720703,2.62499998 1.523437,6.87695312 2.070313,4.261719 1.125,1.351562 -5.199219,4.798828 -1.257813,-1.230468 -4.082031,-2.404297 -6.732422,-2.070313 -2.916015,3.5 3.251953,6.248047 3.101562,3.580078 1.4375,1.013672 -3.78125,5.982422 -1.53125,-0.863281 -4.566406,-1.265625 -7.039063,-0.257813 -1.910156,4.134766 4.759766,5.193359 3.921875,2.65625 1.650391,0.607422 -2.103516,6.75586 -1.703125,-0.4375 -4.738281,-0.04102 -6.865235,1.574219 -0.77539,4.488281 5.941406,3.785156 4.476562,1.550781 1.751953,0.158203 -0.285156,7.070313 -1.757812,0.01953 -4.587891,1.185547 -6.224609,3.296875 0.414062,4.53711 6.716797,2.117187 4.726563,0.339844 1.732422,-0.298828 1.55664,6.902343 -1.695312,0.472657 -4.123047,2.333984 -5.158203,4.794922 1.572265,4.275391 7.03711,0.30664 4.652343,-0.894531 1.597657,-0.738281 3.289062,6.263669 -1.513672,0.89648 -3.378906,3.32031 -3.744141,5.96875 2.626954,3.72071 6.876953,-1.52343 4.261718,-2.07032 1.351563,-1.125 4.798828,5.19922 -1.230469,1.25781 -2.404297,4.08204 -2.070312,6.73241 3.498047,2.91602 6.25,-3.25195 3.5800779,-3.10351 1.0136719,-1.4375 5.9824218,3.78125 -0.8632812,1.53319 -1.265625,4.56446 -0.2578125,7.04101 4.1347656,1.91016 5.1933594,-4.75977 2.65625,-3.92187 0.6074219,-1.65235 6.7558592,2.10547 -0.4375,1.70313 -0.04102,4.73828 1.574219,6.86523 4.488281,0.77539 3.785157,-5.9414 1.548828,-4.47657 0.160156,-1.75195 7.070313,0.28516 0.01758,1.75781 1.1875,4.58594 3.296875,6.22656 4.535156,-0.41406 2.119141,-6.7168 0.339843,-4.72656 -0.300781,-1.73242 6.904297,-1.55665 0.472656,1.69336 2.332031,4.125 4.796876,5.15821 4.273437,-1.57227 0.308594,-7.03711 -0.896485,-4.65234 -0.738281,-1.59766 6.265625,-3.28906 0.896484,1.51367 3.320313,3.37891 5.966797,3.74219 3.722656,-2.625 -1.523437,-6.87696 -2.070313,-4.26172 -1.126953,-1.35156 5.201172,-4.79883 1.255859,1.23047 4.082032,2.4043 6.734374,2.07031 2.916016,-3.5 -3.253906,-6.24805 -3.101563,-3.58007 -1.4375,-1.01368 3.78125,-5.98242 1.533203,0.86328 4.564454,1.26563 7.039066,0.25781 1.91211,-4.134759 -4.75977,-5.19336 -3.923828,-2.65625 -1.650391,-0.607422 2.103519,-6.755859 1.70508,0.4375 4.73632,0.04102 6.86719,-1.574219 0.77539,-4.488281 -5.9414,-3.785157 -4.47657,-1.550781 -1.75195,-0.158203 0.2832,-7.070312 1.75977,-0.01953 4.58594,-1.185547 6.22461,-3.296875 -0.41211,-4.537109 -6.71875,-2.117187 -4.72461,-0.339844 -1.73438,0.300781 -1.554686,-6.904297 1.693356,-0.472656 4.12305,-2.333984 5.16016,-4.794922 -1.57227,-4.275391 -7.03906,-0.306641 -4.650393,0.896485 -1.597656,0.736328 -3.289062,-6.263672 1.513671,-0.896484 3.378907,-3.320313 3.742193,-5.96875 -2.625006,-3.720703 -6.876953,1.523437 -4.261719,2.070313 -1.351562,1.125 -4.798828,-5.199219 1.230468,-1.257812 2.404297,-4.082032 2.070313,-6.7324214 -3.5,-2.9160156 -6.248047,3.2519531 -3.582031,3.1035157 -1.013672,1.4375 -5.980469,-3.78125 0.863281,-1.5332032 1.265625,-4.5644531 0.257813,-7.0410156 -4.134766,-1.9101559 -5.195312,4.7597652 -2.654297,3.921875 -0.607422,1.6523438 -6.755859,-2.1054688 0.4375,-1.703125 0.04102,-4.7382812 -1.574219,-6.865234 -4.488281,-0.775391 -3.785156,5.9414062 -1.550781,4.4765626 -0.158203,1.7519531 -7.072266,-0.2832031 -0.01758,-1.7597657 -1.185547,-4.5859371 z m 4.109375,51.693359 A 30.923914,29.60675 89.999978 0 1 44.666016,37.931641 30.923914,29.60675 89.999978 0 1 59.125,78.974609 30.923914,29.60675 89.999978 0 1 19.830078,94.076172 30.923914,29.60675 89.999978 0 1 5.3710938,53.033203 30.923914,29.60675 89.999978 0 1 31.123047,35.101562 Z"
           style="fill:#ffffff;stroke:#000000;stroke-width:0.99999994"
           inkscape:connector-curvature="0" />
        <g
           style="fill:#ffffff"
           transform="rotate(6.9319278,55.363577,-157.98499)"
           inkscape:label="Gear16"
           id="g2359">
          <path
             id="path2355"
             transform="matrix(0.26264929,-0.03193257,0.03193257,0.26264929,17.711496,2.1488604)"
             d="m -60.664062,-73.234375 -3.646485,6.175781 -0.783203,3.060547 -0.02539,3.294922 -7.392578,0.558594 -0.519531,-3.253907 -1.234375,-2.908203 -4.53125,-5.558593 -4.082031,1.136718 -1.003906,7.101563 0.447265,3.126953 1.236328,3.054688 -6.615234,3.34375 -1.726563,-2.806641 -2.251953,-2.214844 -6.314453,-3.402344 -3.335939,2.613282 1.78906,6.945312 1.611332,2.71875 2.310547,2.347656 -4.832029,5.621094 -2.66797,-1.931641 -2.92969,-1.183593 -7.13477,-0.726563 -2.08203,3.689453 4.31055,5.732422 2.52734,1.894531 3.03516,1.285157 -2.31445,7.042969 -3.20508,-0.765626 -3.1582,0.02734 -6.8711,2.060547 -0.50976,4.205078 6.17578,3.646485 3.06055,0.783203 3.29492,0.02539 0.55859,7.3925785 -3.25391,0.5195313 -2.9082,1.234375 -5.55859,4.53125 1.13672,4.0820312 7.10156,1.0039062 3.12695,-0.4472656 3.05469,-1.2363281 3.34375,6.6152344 -2.80664,1.7265625 -2.21484,2.2519536 -3.40235,6.314453 2.61328,3.335937 6.94531,-1.789062 2.718756,-1.609375 2.347656,-2.3125 5.621094,4.832031 -1.931641,2.669922 -1.183593,2.927734 -0.726563,7.136719 3.689453,2.082031 5.732422,-4.3125 1.894531,-2.527344 1.285157,-3.033203 7.042968,2.3125 -0.765625,3.205078 0.02734,3.158203 2.060547,6.871094 4.205078,0.511719 3.646485,-6.177734 0.783203,-3.060547 0.02539,-3.294922 7.392578,-0.556641 0.519532,3.251953 1.234375,2.908204 4.53125,5.560546 4.082031,-1.138672 1.003906,-7.101562 -0.447265,-3.126953 -1.236329,-3.052735 6.615235,-3.345703 1.726562,2.806641 2.251953,2.214844 6.314453,3.402344 3.335938,-2.613282 -1.789062,-6.945312 -1.609376,-2.716797 -2.3125,-2.349609 4.832032,-5.6210942 2.669922,1.9316402 2.927734,1.183594 7.136719,0.728516 2.080078,-3.691406 -4.310547,-5.7324224 -2.527344,-1.8945312 -3.033203,-1.2851563 2.3125,-7.0429687 3.205078,0.765625 3.158203,-0.027344 6.8710941,-2.0605468 0.5117188,-4.2050776 -6.1777349,-3.646485 -3.060546,-0.783203 -3.294922,-0.02539 -0.556641,-7.392579 3.251953,-0.519531 2.908203,-1.234375 5.5605472,-4.53125 -1.1386722,-4.082031 -7.101562,-1.003906 -3.126953,0.447265 -3.052735,1.236328 -3.345703,-6.615234 2.806641,-1.726563 2.214844,-2.251953 3.402343,-6.314453 -2.613281,-3.335937 -6.945312,1.789062 -2.71875,1.611328 -2.347657,2.310547 -5.621093,-4.832031 1.93164,-2.667969 1.183594,-2.929687 0.728516,-7.134766 -3.691407,-2.082031 -5.732421,4.310547 -1.894532,2.527343 -1.285156,3.035157 -7.042969,-2.314453 0.765625,-3.205078 -0.02734,-3.158204 -2.060546,-6.871093 z m -5.566407,41.867187 a 15.245049,15.234181 89.999644 0 1 2.597657,0.0918 15.245049,15.234181 89.999644 0 1 13.283203,16.97461 15.245049,15.234181 89.999644 0 1 -16.960938,13.2929685 15.245049,15.234181 89.999644 0 1 -13.283203,-16.9726565 15.245049,15.234181 89.999644 0 1 14.363281,-13.386719 z"
             style="fill:#ffffff;stroke:#000000;stroke-width:0.99999994"
             inkscape:connector-curvature="0" />
        </g>
      </g>
    </g>
  </g>
</svg>
