<?xml version="1.0" encoding="UTF-8" standalone="no"?>
<!-- Created with Inkscape (http://www.inkscape.org/) -->

<svg
   xmlns:dc="http://purl.org/dc/elements/1.1/"
   xmlns:cc="http://creativecommons.org/ns#"
   xmlns:rdf="http://www.w3.org/1999/02/22-rdf-syntax-ns#"
   xmlns:svg="http://www.w3.org/2000/svg"
   xmlns="http://www.w3.org/2000/svg"
   xmlns:sodipodi="http://sodipodi.sourceforge.net/DTD/sodipodi-0.dtd"
   xmlns:inkscape="http://www.inkscape.org/namespaces/inkscape"
   width="24"
   height="24"
   viewBox="0 0 6.3499999 6.3500002"
   version="1.1"
   id="svg962"
   inkscape:version="0.92.3 (2405546, 2018-03-11)"
   sodipodi:docname="command.svg">
  <defs
     id="defs956" />
  <sodipodi:namedview
     id="base"
     pagecolor="#ffffff"
     bordercolor="#666666"
     borderopacity="1.0"
     inkscape:pageopacity="0.0"
     inkscape:pageshadow="2"
     inkscape:zoom="22.4"
     inkscape:cx="-0.43556627"
     inkscape:cy="11.928022"
     inkscape:document-units="mm"
     inkscape:current-layer="layer1"
     showgrid="false"
     units="px"
     inkscape:pagecheckerboard="true"
     inkscape:window-width="1920"
     inkscape:window-height="1057"
     inkscape:window-x="-8"
     inkscape:window-y="-8"
     inkscape:window-maximized="1" />
  <metadata
     id="metadata959">
    <rdf:RDF>
      <cc:Work
         rdf:about="">
        <dc:format>image/svg+xml</dc:format>
        <dc:type
           rdf:resource="http://purl.org/dc/dcmitype/StillImage" />
        <dc:title />
      </cc:Work>
    </rdf:RDF>
  </metadata>
  <g
     inkscape:label="Layer 1"
     inkscape:groupmode="layer"
     id="layer1"
     transform="translate(0,-290.64998)">
    <path
       style="opacity:1;fill:#000000;fill-opacity:1;fill-rule:nonzero;stroke:none;stroke-width:0.28620318;stroke-linecap:butt;stroke-linejoin:miter;stroke-miterlimit:4;stroke-dasharray:none;stroke-opacity:1;paint-order:normal"
       d="M 12 2 A 4.1294642 4.1294642 0 0 0 7.8710938 6.1289062 A 4.1294642 4.1294642 0 0 0 10.416016 9.9414062 L 10.416016 19.669922 L 3.6835938 19.669922 C 3.2298915 19.669922 2.8632812 20.129367 2.8632812 20.701172 L 2.8632812 24 L 21.136719 24 L 21.136719 20.701172 C 21.136719 20.129367 20.770109 19.669922 20.316406 19.669922 L 13.583984 19.669922 L 13.583984 9.9394531 A 4.1294642 4.1294642 0 0 0 16.128906 6.1289062 A 4.1294642 4.1294642 0 0 0 12 2 z "
       transform="matrix(0.26458333,0,0,0.26458333,0,290.64998)"
       id="rect812" />
  </g>
</svg>
