<?xml version="1.0" encoding="UTF-8" standalone="no"?>
<!-- Created with Inkscape (http://www.inkscape.org/) -->

<svg
   xmlns:dc="http://purl.org/dc/elements/1.1/"
   xmlns:cc="http://creativecommons.org/ns#"
   xmlns:rdf="http://www.w3.org/1999/02/22-rdf-syntax-ns#"
   xmlns:svg="http://www.w3.org/2000/svg"
   xmlns="http://www.w3.org/2000/svg"
   xmlns:sodipodi="http://sodipodi.sourceforge.net/DTD/sodipodi-0.dtd"
   xmlns:inkscape="http://www.inkscape.org/namespaces/inkscape"
   width="24"
   height="24"
   viewBox="0 0 16.933354 16.933355"
   version="1.1"
   id="svg8"
   inkscape:version="0.92.3 (2405546, 2018-03-11)"
   sodipodi:docname="other.svg">
  <defs
     id="defs2" />
  <sodipodi:namedview
     id="base"
     pagecolor="#ffffff"
     bordercolor="#666666"
     borderopacity="1.0"
     inkscape:pageopacity="0.0"
     inkscape:pageshadow="2"
     inkscape:zoom="22.627417"
     inkscape:cx="0.44439651"
     inkscape:cy="8.5439637"
     inkscape:document-units="mm"
     inkscape:current-layer="g833"
     showgrid="false"
     units="px"
     inkscape:window-width="1920"
     inkscape:window-height="1057"
     inkscape:window-x="-8"
     inkscape:window-y="-8"
     inkscape:window-maximized="1"
     inkscape:measure-start="0,0"
     inkscape:measure-end="0,0"
     scale-x="2.66667"
     inkscape:pagecheckerboard="true" />
  <metadata
     id="metadata5">
    <rdf:RDF>
      <cc:Work
         rdf:about="">
        <dc:format>image/svg+xml</dc:format>
        <dc:type
           rdf:resource="http://purl.org/dc/dcmitype/StillImage" />
        <dc:title />
      </cc:Work>
    </rdf:RDF>
  </metadata>
  <g
     inkscape:label="Layer 1"
     inkscape:groupmode="layer"
     id="layer1"
     transform="translate(0,-308.28892)">
    <g
       id="g870"
       transform="translate(0.09687071,28.222276)">
      <g
         id="g833"
         transform="matrix(1.1102486,0,0,1.1102486,-0.92275926,-31.810389)">
        <path
           style="fill:#000000;stroke-width:0.01832091"
           d="m 2.9669753,295.68807 c -0.059479,-0.0199 -0.15122,-0.049 -0.2047276,-0.0762 -0.106263,-0.056 -1.1261469,-0.92482 -1.2177841,-1.03777 -0.1339062,-0.16467 -0.1975045,-0.45562 -0.1487844,-0.67957 0.04966,-0.22816 -0.039672,-0.11342 1.5653702,-1.98699 0.4404011,-0.51371 0.9733463,-1.13593 1.1843124,-1.38283 0.2109692,-0.24681 0.7401682,-0.86448 1.1759997,-1.37265 0.435838,-0.50813 0.9649384,-1.12522 1.1757643,-1.37167 0.2108119,-0.24646 0.5636154,-0.65834 0.7839449,-0.91573 0.2203547,-0.25722 0.5679061,-0.66438 0.7723562,-0.90462 0.2044529,-0.24015 0.3826371,-0.43767 0.3959476,-0.43866 0.013596,-0.002 0.4061722,0.3262 0.8730708,0.72793 l 0.8488757,0.73018 -0.153141,0.20184 c -0.084103,0.11272 -0.2532108,0.33491 -0.3755678,0.49658 -0.1223582,0.16132 -0.2966324,0.39169 -0.3872468,0.51163 -0.090629,0.12082 -0.7283611,0.96228 -1.41721,1.87192 -0.6888529,0.90958 -1.3599689,1.79603 -1.4913667,1.96983 -0.1313788,0.17506 -0.6213862,0.82132 -1.0888505,1.43889 -1.7126247,2.26265 -1.5290088,2.03353 -1.7148607,2.14005 -0.1392441,0.0806 -0.4100952,0.11518 -0.5763407,0.0741 z M 13.522687,288.0895 c -0.135947,-0.0337 -0.232892,-0.10144 -0.466417,-0.31482 -0.168726,-0.15516 -0.230435,-0.22344 -0.26631,-0.29834 -0.09571,-0.19919 -0.101732,-0.32861 -0.02026,-0.43512 0.163328,-0.21271 0.01647,-0.54471 -0.382873,-0.86332 -0.08558,-0.067 -0.207963,-0.15268 -0.271622,-0.18788 -0.266227,-0.14529 -0.606878,-0.2014 -0.838884,-0.13895 -0.200454,0.055 -0.263695,0.10074 -0.523654,0.40556 -0.131569,0.15462 -0.241741,0.27944 -0.244733,0.2797 -0.01183,1.6e-4 -0.470384,-0.3734 -1.0938784,-0.89333 l -0.6588512,-0.54956 0.2089375,-0.25879 c 0.1149155,-0.14159 0.2375837,-0.30439 0.272559,-0.36063 0.2189457,-0.35012 0.092943,-0.76762 -0.3269635,-1.08371 -0.6854581,-0.51593 -1.5193214,-0.83405 -2.4804162,-0.94615 -0.2606617,-0.0307 -0.6460166,-0.0432 -0.8125331,-0.03 l -0.1144347,0.002 -0.010198,-0.1164 c -0.00573,-0.0642 -0.020805,-0.17814 -0.033831,-0.25219 l -0.023677,-0.13719 0.2301747,-0.0783 c 0.4053599,-0.13473 0.7634011,-0.22922 1.2829745,-0.34071 0.1204173,-0.0159 0.4037613,-0.0603 0.7739192,-0.0864 0.6167463,-0.0492 0.8371328,-0.0599 1.2881463,0.007 0.7311031,0.0963 1.3818369,0.33833 1.9869559,0.74032 0.102048,0.0679 0.584552,0.45681 1.072225,0.86438 l 0.886686,0.7411 0.04771,0.11834 c 0.03178,0.0788 0.06297,0.2187 0.09314,0.41483 0.05324,0.347 0.06893,0.42211 0.117825,0.56396 0.08416,0.24423 0.245797,0.42183 0.470632,0.51746 0.244901,0.10321 0.397242,0.1076 0.53191,0.0178 0.0727,-0.0501 0.105107,-0.0594 0.230526,-0.0727 0.21964,-0.002 0.305493,0.0199 0.570224,0.26203 0.116123,0.10707 0.231846,0.22752 0.257282,0.2701 0.09786,0.16273 0.112574,0.37989 0.03848,0.5656 -0.03682,0.0928 -0.287819,0.40765 -1.06524,1.33929 -0.214543,0.25714 -0.288739,0.30683 -0.495427,0.33166 -0.09947,0.002 -0.173294,-0.005 -0.230805,-0.0222 z"
           id="path908"
           inkscape:connector-curvature="0" />
      </g>
    </g>
  </g>
</svg>
